<?xml version="1.0" encoding="iso-8859-1"?>
<!-- Uploaded to: SVG Repo, www.svgrepo.com, Generator: SVG Repo Mixer Tools -->
<svg 
	fill="#000000" 
	height="52px" 
	width="52px" 
	version="1.1" 
	id="Layer_1" 
	xmlns="http://www.w3.org/2000/svg" 
	xmlns:xlink="http://www.w3.org/1999/xlink" 	
	viewBox="0 0 512 512" 
	xml:space="preserve">
<g>
	<g>
		<path d="M437.523,337.779c0,12.263,4.986,23.387,13.035,31.436c8.049,8.049,19.173,13.035,31.424,13.035
			c6.775,0,12.251-5.488,12.251-12.251c0-6.775-5.476-12.251-12.251-12.251c-11.001,0-19.957-8.955-19.957-19.969
			c0-19.05-6.995-36.496-18.536-49.911c-11.553-13.427-27.663-22.824-45.892-25.764v-52.214
			c36.471-5.88,64.428-37.574,64.428-75.687c0-11.014,8.956-19.969,19.957-19.969c6.775,0,12.251-5.476,12.251-12.251
			c0-6.763-5.476-12.251-12.251-12.251c-24.514,0-44.459,19.957-44.459,44.471c0,28.765-23.412,52.177-52.177,52.177h-5.868
			c-3.639-36.888-23.497-69.083-52.324-89.334V83.179c0-12.717-4.949-24.686-13.954-33.678l-0.086-0.086
			c13.721-6.42,24.588-18.254,29.562-33.323c2.119-6.432-1.372-13.354-7.804-15.473c-6.419-2.119-13.354,1.372-15.473,7.792
			c-3.822,11.638-13.905,19.847-25.801,21.476l-3.908-3.908c-18.573-18.572-48.808-18.572-67.38,0l-3.908,3.908
			c-11.896-1.629-21.978-9.838-25.801-21.476c-2.119-6.419-9.053-9.911-15.473-7.792c-6.432,2.119-9.923,9.041-7.804,15.473
			c4.974,15.081,15.853,26.903,29.562,33.31l-0.086,0.098c-9.004,8.992-13.954,20.961-13.954,33.678v13.868
			c-28.827,20.251-48.685,52.446-52.312,89.334h-5.88c-28.765,0-52.177-23.412-52.177-52.177c0-24.514-19.945-44.471-44.459-44.471
			c-6.775,0-12.251,5.488-12.251,12.251c0,6.775,5.476,12.251,12.251,12.251c11.001,0,19.957,8.955,19.957,19.969
			c0,38.113,27.957,69.806,64.428,75.687v43.711c-36.471,5.88-64.428,37.574-64.428,75.674c0,5.501-2.242,10.499-5.856,14.113
			c-3.614,3.614-8.6,5.856-14.101,5.856c-6.775,0-12.251,5.488-12.251,12.251s5.476,12.251,12.251,12.251
			c24.514,0,44.459-19.945,44.459-44.471c0-12.263,4.263-23.559,11.381-32.49c7.13-8.919,17.102-15.461,28.545-18.229v88.097
			c-36.471,5.88-64.428,37.574-64.428,75.674c0,5.501-2.242,10.499-5.856,14.113c-3.614,3.614-8.6,5.856-14.101,5.856
			c-6.775,0-12.251,5.488-12.251,12.251S23.244,486.8,30.019,486.8c24.514,0,44.459-19.945,44.459-44.471
			c0-12.275,4.263-23.583,11.393-32.502s17.115-15.461,28.557-18.217C115.653,458.206,170.194,512,237.072,512h37.855
			c66.878,0,121.419-53.782,122.644-120.39c22.885,5.513,39.95,26.168,39.95,50.719c0,12.263,4.986,23.387,13.035,31.436
			c8.049,8.049,19.173,13.035,31.424,13.035c6.775,0,12.251-5.488,12.251-12.251s-5.476-12.251-12.251-12.251
			c-11.001,0-19.957-8.955-19.957-19.969c0-19.05-6.995-36.496-18.536-49.91c-11.553-13.427-27.663-22.824-45.892-25.764v-79.582
			C420.469,292.585,437.523,313.228,437.523,337.779z M209.348,83.179c0-6.174,2.401-11.981,6.775-16.355l23.51-23.522
			c9.029-9.017,23.706-9.017,32.735,0l23.51,23.522c4.374,4.374,6.775,10.181,6.775,16.355v0.49
			c-14.407-5.868-30.162-9.115-46.652-9.115s-32.245,3.247-46.652,9.115V83.179z M256,99.056c50.756,0,92.74,38.186,98.792,87.325
			h-50.67c-19.626,0-37.084,9.421-48.122,23.963c-11.038-14.542-28.496-23.963-48.122-23.963h-50.682
			C163.236,137.243,205.244,99.056,256,99.056z M373.095,389.331c0,54.137-44.042,98.167-98.167,98.167h-37.855
			c-54.125,0-98.167-44.03-98.167-98.167V210.883h68.973c19.773,0,35.871,16.086,35.871,35.871v188.481
			c0,6.763,5.488,12.251,12.251,12.251c6.763,0,12.251-5.488,12.251-12.251V246.754c0-19.785,16.098-35.871,35.871-35.871h68.973
			V389.331z"/>
	</g>
</g>
</svg>