<?xml version="1.0" encoding="iso-8859-1"?>
<!-- Uploaded to: SVG Repo, www.svgrepo.com, Generator: SVG Repo Mixer Tools -->
<svg fill="#000000" height="52px" width="52px" version="1.1" id="Layer_1" xmlns="http://www.w3.org/2000/svg" xmlns:xlink="http://www.w3.org/1999/xlink" 
	 viewBox="0 0 512 512" xml:space="preserve">
<g id="SVGCleanerId_0">
	<g>
		<path d="M168.831,344.923c-3.476-4.847-10.213-5.97-15.06-2.505c-11.94,8.539-21.926,19.194-29.666,31.663
			c-3.152,5.063-1.598,11.724,3.465,14.865c1.77,1.101,3.746,1.63,5.689,1.63c3.606,0,7.136-1.814,9.176-5.096
			c6.24-10.051,14.282-18.622,23.891-25.499C171.174,356.517,172.297,349.77,168.831,344.923z"/>
	</g>
</g>
<g>
	<g>
		<path d="M131.112,162.057H69.955c-3.487,0-6.758,1.684-8.788,4.523c-2.03,2.828-2.559,6.477-1.425,9.77
			c4.048,11.832,9.446,23.21,16.042,33.833c20.436,32.883,51.646,57.799,87.876,70.139c1.134,0.389,2.31,0.583,3.476,0.583
			c2.224,0,4.426-0.691,6.283-2.019c2.839-2.03,4.513-5.301,4.513-8.777v-61.222C177.932,183.065,156.924,162.057,131.112,162.057z
			 M156.341,254.143c-25.413-11.864-47.155-31.124-62.215-55.36c-3.034-4.869-5.765-9.932-8.194-15.135h45.179
			c13.915,0,25.229,11.325,25.229,25.24V254.143z"/>
	</g>
</g>
<g>
	<g>
		<g>
			<path d="M479.3,236.957c21.397-34.416,32.7-74.133,32.7-114.843c0-5.959-4.836-10.796-10.796-10.796H380.888
				c-42.847,0-79.326,27.755-92.41,66.241c-5.927-16.398-13.138-27.043-21.559-31.825c3.897-33.401,32.354-59.408,66.781-59.408
				c5.959,0,10.796-4.836,10.796-10.796c0-5.959-4.836-10.796-10.796-10.796c-33.639,0-62.97,18.795-78.052,46.432
				c-15.081-27.637-44.413-46.432-78.052-46.432c-5.959,0-10.796,4.836-10.796,10.796c0,5.959,4.836,10.796,10.796,10.796
				c34.567,0,63.111,26.212,66.835,59.807c-8.14,4.977-15.125,15.502-20.9,31.491c-13.052-38.508-49.552-66.306-92.421-66.306
				H10.796C4.836,111.318,0,116.155,0,122.114c0,40.721,11.303,80.438,32.689,114.843c19.454,31.329,46.248,56.979,78.106,74.953
				c-11.562,10.277-21.548,22.12-29.785,35.388c-15.805,25.434-24.16,54.777-24.16,84.875c0,5.959,4.836,10.796,10.796,10.796
				h87.282c27.896,0,52.229-15.578,64.752-38.486c8.68,28.392,20.889,42.783,36.338,42.783s27.658-14.38,36.338-42.75
				c12.523,22.887,36.845,38.454,64.73,38.454h87.282c5.959,0,10.796-4.836,10.796-10.796c0-30.098-8.356-59.44-24.16-84.875
				c-8.237-13.268-18.234-25.121-29.796-35.399C433.041,293.935,459.836,268.285,479.3,236.957z M207.08,369.224
				c0,28.759-23.394,52.153-52.153,52.153H78.851c1.716-22.25,8.712-43.722,20.49-62.679c9.792-15.751,22.39-29.202,37.471-39.987
				c0.022-0.011,2.774-2.656,3.498-4.221c2.526-5.398,0.184-11.821-5.225-14.336c-34.729-16.182-63.802-41.973-84.065-74.597
				c-17.359-27.939-27.334-59.764-29.137-92.647h109.229c41.887,0,75.968,34.082,75.968,75.979V369.224z M283.318,300.003
				c-0.032,37.255-3.843,71.067-10.742,95.249c-7.211,25.262-14.887,30.422-16.56,30.422c-1.662,0-9.349-5.16-16.55-30.422
				c-1.868-6.521-3.487-13.764-4.89-21.57h12.328c5.959,0,10.796-4.826,10.796-10.796c0-5.959-4.836-10.796-10.796-10.796h-15.438
				c-0.95-8.572-1.663-17.618-2.127-26.989h26.676c5.97,0,10.796-4.826,10.796-10.796c0-5.959-4.826-10.796-10.796-10.796h-27.27
				c-0.011-1.339-0.032-2.667-0.032-4.005c0-36.586,3.584-71.251,10.094-97.624c7.157-28.997,15.222-36.824,17.208-37.482
				c1.997,0.659,10.061,8.485,17.219,37.482c6.477,26.255,10.051,60.714,10.083,97.106V300.003z M376.915,300.132
				c-5.409,2.526-7.751,8.939-5.236,14.347c0.745,1.576,1.814,2.882,3.087,3.897c0.011,0.011,0.022,0.011,0.022,0.022
				c0.119,0.086,0.227,0.173,0.345,0.259c0.022,0.011,0.032,0.032,0.054,0.043c15.081,10.796,27.691,24.247,37.482,39.997
				c11.778,18.957,18.773,40.429,20.49,62.679h-76.076c-28.759,0-52.153-23.394-52.153-52.153v-40.019
				c0-0.13-0.011-0.259-0.022-0.389V208.888c0-41.897,34.082-75.979,75.979-75.979h109.229
				c-1.803,32.872-11.789,64.708-29.148,92.647C440.695,258.181,411.623,283.971,376.915,300.132z"/>
			<path d="M451.512,167.677c-0.206-0.377-0.437-0.743-0.69-1.097c-0.252-0.355-0.524-0.692-0.814-1.01
				c-2.026-2.224-4.912-3.514-7.963-3.514h-61.157c-25.823,0-46.831,21.008-46.831,46.831v0v61.221v0
				c0,0.869,0.105,1.725,0.307,2.552c0.606,2.482,2.084,4.702,4.205,6.224c0.928,0.664,1.943,1.169,3.004,1.507
				c1.061,0.339,2.167,0.511,3.279,0.511c1.177,0,2.353-0.194,3.487-0.583c14.718-5.013,28.608-12.101,41.284-20.956
				c0.975-0.681,1.943-1.373,2.903-2.075c2.881-2.106,5.697-4.304,8.441-6.592c0.915-0.763,1.822-1.535,2.72-2.317
				c5.393-4.693,10.495-9.737,15.27-15.102c6.366-7.153,12.148-14.876,17.257-23.097c6.596-10.623,11.994-22.001,16.042-33.833
				c0.421-1.235,0.61-2.52,0.574-3.792C452.784,170.861,452.338,169.185,451.512,167.677z M417.874,198.784
				c-15.06,24.236-36.813,43.495-62.225,55.36v-45.255c0-13.915,11.325-25.24,25.24-25.24h45.179
				C423.639,188.852,420.896,193.915,417.874,198.784z"/>
			<path d="M362.617,345.712c-1.432-1.134-2.895-2.236-4.389-3.304c-2.121-1.516-4.605-2.156-7.019-1.99
				c-0.69,0.047-1.374,0.16-2.042,0.338c-0.334,0.089-0.664,0.193-0.989,0.314c-1.949,0.723-3.71,2.015-5.01,3.833
				c-3.042,4.251-2.562,9.94,0.852,13.624c0.488,0.526,1.036,1.012,1.641,1.446c1.406,1.004,2.768,2.056,4.106,3.132
				c7.824,6.294,14.478,13.795,19.806,22.378c0.51,0.82,1.113,1.549,1.788,2.181c0.544,0.51,1.144,0.938,1.769,1.318
				c0.661,0.402,1.357,0.731,2.082,0.982c1.137,0.394,2.331,0.614,3.538,0.614c0.972,0,1.951-0.132,2.909-0.402
				c0.479-0.135,0.953-0.304,1.417-0.509c0.465-0.204,0.92-0.444,1.363-0.719c1.266-0.785,2.312-1.791,3.121-2.936
				c1.415-2.004,2.101-4.437,1.958-6.871c-0.102-1.738-0.628-3.476-1.613-5.059c-1.935-3.117-4.011-6.121-6.222-9.007
				c-4.334-5.656-9.198-10.852-14.543-15.569C365.667,348.206,364.164,346.937,362.617,345.712z"/>
		</g>
	</g>
</g>
<g>
	<g>
		<path d="M168.831,344.923c-3.476-4.847-10.213-5.97-15.06-2.505c-11.94,8.539-21.926,19.194-29.666,31.663
			c-3.152,5.063-1.598,11.724,3.465,14.865c1.77,1.101,3.746,1.63,5.689,1.63c3.606,0,7.136-1.814,9.176-5.096
			c6.24-10.051,14.282-18.622,23.891-25.499C171.174,356.517,172.297,349.77,168.831,344.923z"/>
	</g>
</g>
<g>
	<g>
		<path d="M131.112,162.057H69.955c-3.487,0-6.758,1.684-8.788,4.523c-2.03,2.828-2.559,6.477-1.425,9.77
			c4.048,11.832,9.446,23.21,16.042,33.833c20.436,32.883,51.646,57.799,87.876,70.139c1.134,0.389,2.31,0.583,3.476,0.583
			c2.224,0,4.426-0.691,6.283-2.019c2.839-2.03,4.513-5.301,4.513-8.777v-61.222C177.932,183.065,156.924,162.057,131.112,162.057z
			 M156.341,254.143c-25.413-11.864-47.155-31.124-62.215-55.36c-3.034-4.869-5.765-9.932-8.194-15.135h45.179
			c13.915,0,25.229,11.325,25.229,25.24V254.143z"/>
	</g>
</g>
<g>
	<g>
		<path d="M387.905,374.082c-7.74-12.469-17.726-23.124-29.677-31.674c-4.847-3.465-11.594-2.353-15.06,2.494
			c-3.476,4.858-2.353,11.594,2.494,15.071c9.63,6.877,17.672,15.459,23.912,25.51c2.04,3.282,5.571,5.096,9.176,5.096
			c1.943,0,3.919-0.529,5.689-1.63C389.503,385.806,391.058,379.145,387.905,374.082z"/>
	</g>
</g>
<g id="SVGCleanerId_2">
	<g>
		<path d="M450.822,166.581c-2.019-2.839-5.29-4.523-8.777-4.523h-61.157c-25.823,0-46.831,21.008-46.831,46.831v61.222
			c0,3.476,1.684,6.747,4.513,8.777c1.857,1.328,4.059,2.019,6.283,2.019c1.177,0,2.353-0.194,3.487-0.583
			c36.23-12.339,67.44-37.255,87.876-70.139c6.596-10.623,11.994-22.001,16.042-33.833
			C453.38,173.058,452.851,169.409,450.822,166.581z M417.874,198.784c-15.06,24.236-36.813,43.495-62.225,55.36v-45.255
			c0-13.915,11.325-25.24,25.24-25.24h45.179C423.639,188.852,420.896,193.915,417.874,198.784z"/>
	</g>
</g>
<g>
	<g>
		<path d="M450.822,166.581c-2.019-2.839-5.29-4.523-8.777-4.523h-61.157c-25.823,0-46.831,21.008-46.831,46.831v61.222
			c0,3.476,1.684,6.747,4.513,8.777c1.857,1.328,4.059,2.019,6.283,2.019c1.177,0,2.353-0.194,3.487-0.583
			c36.23-12.339,67.44-37.255,87.876-70.139c6.596-10.623,11.994-22.001,16.042-33.833
			C453.38,173.058,452.851,169.409,450.822,166.581z M417.874,198.784c-15.06,24.236-36.813,43.495-62.225,55.36v-45.255
			c0-13.915,11.325-25.24,25.24-25.24h45.179C423.639,188.852,420.896,193.915,417.874,198.784z"/>
	</g>
</g>
<g>
	<g>
		<path d="M131.112,162.057H69.955c-3.487,0-6.758,1.684-8.788,4.523c-2.03,2.828-2.559,6.477-1.425,9.77
			c4.048,11.832,9.446,23.21,16.042,33.833c20.436,32.883,51.646,57.799,87.876,70.139c1.134,0.389,2.31,0.583,3.476,0.583
			c2.224,0,4.426-0.691,6.283-2.019c2.839-2.03,4.513-5.301,4.513-8.777v-61.222C177.932,183.065,156.924,162.057,131.112,162.057z
			 M156.341,254.143c-25.413-11.864-47.155-31.124-62.215-55.36c-3.034-4.869-5.765-9.932-8.194-15.135h45.179
			c13.915,0,25.229,11.325,25.229,25.24V254.143z"/>
	</g>
</g>
<g>
	<g>
		<path d="M168.831,344.923c-3.476-4.847-10.213-5.97-15.06-2.505c-11.94,8.539-21.926,19.194-29.666,31.663
			c-3.152,5.063-1.598,11.724,3.465,14.865c1.771,1.101,3.746,1.63,5.689,1.63c3.606,0,7.136-1.814,9.176-5.095
			c6.24-10.051,14.283-18.622,23.891-25.499C171.174,356.517,172.297,349.77,168.831,344.923z"/>
	</g>
</g>
<g>
	<g>
		<path d="M387.905,374.082c-7.74-12.469-17.726-23.124-29.677-31.674c-4.847-3.465-11.594-2.353-15.06,2.494
			c-3.476,4.858-2.353,11.594,2.494,15.071c9.63,6.877,17.672,15.459,23.912,25.51c2.04,3.282,5.57,5.096,9.176,5.096
			c1.943,0,3.919-0.529,5.689-1.63C389.503,385.806,391.058,379.145,387.905,374.082z"/>
	</g>
</g>
</svg>