<?xml version="1.0" encoding="iso-8859-1"?>
<!-- Uploaded to: SVG Repo, www.svgrepo.com, Generator: SVG Repo Mixer Tools -->
<svg 
	fill="#000000" 
	height="52px" 
	width="52px" 
	version="1.1" 
	id="Layer_1" 
	xmlns="http://www.w3.org/2000/svg" 
	xmlns:xlink="http://www.w3.org/1999/xlink" 
	viewBox="0 0 512 512" 
	xml:space="preserve">
<g>
	<g>
		<g>
			<path d="M243.513,57.156c-5.962,0-10.81,4.837-10.81,10.81c0,5.962,4.848,10.81,10.81,10.81c5.973,0,10.81-4.848,10.81-10.81
				C254.323,61.993,249.486,57.156,243.513,57.156z"/>
			<path d="M363.625,98.156c-0.963-21.09-8.581-40.849-22.031-57.134c-12.033-14.554-28.307-25.407-46.248-30.948
				C287.392,3.776,277.361,0,266.453,0h-35.752c-45.404,0-82.336,36.932-82.336,82.336c0,0.097,0.011,0.195,0.011,0.292v282.803
				c0,0.065-0.011,0.141-0.011,0.206c0,0,0.076,49.408,0.216,51.486C152.001,470.329,196.475,512,249.843,512
				c5.973,0,10.821-4.837,10.821-10.821V385.363c16.826-3.679,32.246-12.206,44.495-24.812
				c16.188-16.643,25.104-38.609,25.104-61.83v-89.932c0-28.773-14.219-55.901-37.505-72.435c1.482-1.699,2.9-3.452,4.242-5.27
				c18.677-3.939,34.713-16.145,43.651-32.787c1.98,2.013,3.852,4.123,5.594,6.33c1.894,2.391,4.729,3.712,7.65,3.712
				c1.136,0,2.294-0.195,3.398-0.617C361.266,106.25,363.819,102.376,363.625,98.156z M230.701,21.642h35.752
				c13.753,0,24.942,11.189,24.942,24.931v8.83l-17.66-17.66c-4.036-4.036-8.732-7.163-13.862-9.284
				c-5.118-2.121-10.648-3.235-16.361-3.235c-23.557,0-42.732,19.175-42.732,42.742c0,11.416,4.447,22.139,12.52,30.212
				l40.329,40.329c-7.077,2.911-14.825,4.512-22.929,4.512c-33.372,0-60.532-27.063-60.683-60.391v-0.292
				c0-0.032-0.011-0.065-0.011-0.097C170.061,48.813,197.265,21.642,230.701,21.642z M291.374,82.931
				c-0.173,17.941-8.17,34.032-20.733,45.047l-43.565-43.576c-4.393-4.383-6.817-10.226-6.817-16.437
				c0-12.823,10.431-23.265,23.254-23.265c6.211,0,12.054,2.424,16.448,6.817L291.374,82.931z M231.805,287.391v0.216
				c0,36.369-26.868,66.57-61.787,71.818v-38.479C194.549,318.123,216.558,305.787,231.805,287.391z M170.018,299.132v-36.066
				c24.553-2.792,46.443-14.998,61.722-33.112c-0.162,4.761-0.79,9.49-1.883,14.121c-0.022,0.065-0.032,0.141-0.054,0.206
				C222.888,273.216,198.942,294.782,170.018,299.132z M170.018,241.251V137.912c15.063,16.426,37.786,26.749,61.787,26.749v13.45
				C227.66,210.974,202.026,236.501,170.018,241.251z M239.022,489.633c-37.029-5.064-66.386-35.709-68.842-73.95
				c-0.119-1.645-0.173-34.432-0.173-34.432c8.938-1.028,17.497-3.311,25.494-6.655c13.147,7.986,28.059,12.39,43.522,12.812
				V489.633z M308.622,208.789v89.932c0,17.562-6.741,34.161-18.98,46.746c-12.206,12.563-28.556,19.781-46.043,20.311
				c-0.054,0-1.45,0.032-2.088,0.032c-8.224,0-16.264-1.482-23.817-4.35c21.761-17.281,35.752-43.965,35.752-73.852V161.447
				c8.04-2.316,15.571-5.822,22.399-10.312C296.07,163.211,308.622,185.275,308.622,208.789z M309.975,104.497
				c1.98-7.055,3.062-14.478,3.062-22.161v-1.883c4.123,1.526,8.105,3.409,11.925,5.648
				C321.683,93.503,316.446,99.844,309.975,104.497z M313.037,59.98c0,0-0.162-17.627-0.433-19.672
				c10.669,7.888,19.229,18.428,24.737,30.504C329.755,66.04,321.618,62.436,313.037,59.98z"/>
		</g>
	</g>
</g>
<g id="SVGCleanerId_0">
	<g>
		<path d="M243.513,57.156c-5.962,0-10.81,4.837-10.81,10.81c0,5.962,4.848,10.81,10.81,10.81c5.973,0,10.81-4.848,10.81-10.81
			C254.323,61.993,249.486,57.156,243.513,57.156z"/>
	</g>
</g>
<g>
	<g>
		<path d="M243.513,57.156c-5.962,0-10.81,4.837-10.81,10.81c0,5.962,4.848,10.81,10.81,10.81c5.973,0,10.81-4.848,10.81-10.81
			C254.323,61.993,249.486,57.156,243.513,57.156z"/>
	</g>
</g>
</svg>