<?xml version="1.0" encoding="iso-8859-1"?>
<!-- Uploaded to: SVG Repo, www.svgrepo.com, Generator: SVG Repo Mixer Tools -->
<svg fill="#000000" height="52px" width="52px" version="1.1" id="Layer_1" xmlns="http://www.w3.org/2000/svg" xmlns:xlink="http://www.w3.org/1999/xlink" 
	 viewBox="0 0 512 512" xml:space="preserve">
<g>
	<g>
		<path d="M107.259,141.792c-4.986,0-9.018,4.031-9.018,9.018c0,4.976,4.031,9.007,9.018,9.007c4.976,0,9.007-4.032,9.007-9.007
			C116.266,145.823,112.235,141.792,107.259,141.792z"/>
	</g>
</g>
<g>
	<g>
		<path d="M142.619,186.817l-3.299-3.299c-3.734-3.734-9.771-3.734-13.505,0c-3.724,3.724-3.724,9.771,0,13.505l3.31,3.299
			c1.857,1.867,4.307,2.801,6.747,2.801s4.891-0.934,6.747-2.801C146.354,196.599,146.354,190.552,142.619,186.817z"/>
	</g>
</g>
<g>
	<g>
		<path d="M169.599,183.518c-3.724-3.734-9.771-3.734-13.506,0l-3.299,3.31c-3.734,3.724-3.734,9.771,0,13.495
			c1.867,1.867,4.307,2.801,6.747,2.801c2.451,0,4.891-0.934,6.758-2.801l3.299-3.299
			C173.333,193.289,173.333,187.242,169.599,183.518z"/>
	</g>
</g>
<g>
	<g>
		<path d="M188.165,141.792c-4.986,0-9.018,4.031-9.018,9.018c0,4.976,4.031,9.007,9.018,9.007c4.976,0,9.007-4.032,9.007-9.007
			C197.172,145.823,193.141,141.792,188.165,141.792z"/>
	</g>
</g>
<g>
	<g>
		<g>
			<path d="M353.965,241.487c-3.069-2.867-6.241-5.67-9.51-8.404c-1.635-1.367-3.294-2.717-4.976-4.049
				c-8.413-6.659-17.415-12.873-26.91-18.569c-1.571-0.942-3.288-1.429-4.997-1.502c-1.367-0.058-2.731,0.15-4.011,0.604
				c-0.64,0.227-1.26,0.515-1.849,0.863c-0.589,0.347-1.148,0.754-1.667,1.217c-0.778,0.695-1.466,1.517-2.031,2.457
				c-0.377,0.629-0.681,1.28-0.915,1.946c-1.639,4.657,0.154,9.974,4.554,12.61c13.919,8.349,26.65,17.876,37.832,28.327
				c13.622,12.731,24.666,26.64,31.912,40.219c0.955,1.788,2.35,3.191,3.98,4.147c1.63,0.956,3.494,1.465,5.388,1.465
				c1.687,0,3.395-0.403,4.986-1.252c5.177-2.758,7.129-9.188,4.36-14.354c-5.813-10.89-13.376-21.564-22.583-31.884
				C363.343,250.637,358.819,246.019,353.965,241.487z"/>
			<path d="M441.078,25.897c-39.116,0-70.933,31.817-70.933,70.923v92.905c-10.015-7.914-20.699-15.277-31.934-22.014
				c-15.797-9.474-32.135-17.378-48.728-23.584c3.872-7.787,5.931-16.412,5.931-25.271c0-31.276-25.451-56.727-56.727-56.727
				c-1.443,0-2.833,0.064-4.212,0.17c-18.396-30.247-50.988-48.739-86.773-48.739c-35.806,0-68.387,18.492-86.783,48.728
				c-1.369-0.096-2.748-0.159-4.191-0.159C25.451,62.127,0,87.579,0,118.855c0,31.287,25.451,56.727,56.727,56.727
				c3.024,0,5.984-0.233,8.859-0.69c0.032,0.042,0.053,0.096,0.085,0.138c0.965,26.173,14.556,50.532,36.241,65.151
				c4.52,21.749,15.394,44.474,31.658,66.191v121.634c0,11.416,4.445,22.141,12.519,30.226c4.827,4.817,10.758,8.402,17.198,10.471
				c5.517,17.229,21.685,29.738,40.718,29.738c23.563,0,42.744-19.181,42.744-42.745v-61.639c7.044,3.098,14.131,5.888,21.229,8.349
				c-6.726,7.066-10.874,16.603-10.874,27.107s4.085,20.37,11.522,27.807c5.326,5.315,11.904,8.912,19.065,10.524
				c1.613,7.172,5.209,13.76,10.535,19.075c7.426,7.426,17.304,11.511,27.807,11.511h68.811c30.671,0,55.624-24.942,55.624-55.507
				l1.209-264.222c5.814,3.193,12.466,5.018,19.553,5.018c22.481,0,40.771-18.29,40.771-40.771V96.82
				C512,57.714,480.183,25.897,441.078,25.897z M21.218,118.855c0-17.643,12.943-32.326,29.833-35.053
				c-3.268,10.1-4.965,20.72-4.965,31.361c0,13.495,2.695,26.767,7.861,39.084C35.668,152.825,21.218,137.495,21.218,118.855z
				 M244.34,83.802c16.9,2.716,29.854,17.399,29.854,35.053c0,8.774-3.215,17.198-9.05,23.712
				c-6.111,6.811-14.63,10.981-23.712,11.681c1.422-3.384,2.674-6.843,3.713-10.386c2.758-9.283,4.148-18.937,4.148-28.698
				C249.295,104.522,247.598,93.902,244.34,83.802z M147.701,34.777c28.698,0,54.797,15.033,69.236,39.54
				c-14.906,23.818-40.952,38.395-69.225,38.395c-28.327,0-54.383-14.577-69.278-38.373
				C92.884,49.821,118.982,34.777,147.701,34.777z M86.836,172.283c0.021-0.286,0.032-0.573,0.032-0.859
				c0-2.387-0.806-4.7-2.281-6.578c-1.888-2.387-3.671-4.933-5.294-7.564c-7.84-12.646-11.988-27.213-11.988-42.119
				c0-5.994,0.647-11.861,1.92-17.569c19.319,22.799,47.847,36.336,78.487,36.336c30.597,0,59.104-13.548,78.444-36.368
				c1.273,5.718,1.92,11.596,1.92,17.601c0,7.724-1.093,15.352-3.268,22.682l-0.011,0.011c-2.886,9.803-7.596,18.884-14.004,26.99
				c-1.475,1.878-2.281,4.191-2.281,6.578c0,0.318,0.021,0.626,0.042,0.944c-0.17,33.419-27.404,60.557-60.854,60.557
				c-10.874,0-21.537-2.896-30.841-8.381C98.411,213.669,86.921,193.671,86.836,172.283z M161.26,443.369
				c-0.053-0.053-0.106-0.095-0.159-0.149c-4.074-4.063-6.313-9.463-6.313-15.214v-96.989c2.111,2.154,4.265,4.286,6.472,6.387
				V443.369z M288.942,445.979c-1.952-0.881-3.766-2.111-5.326-3.671c-3.416-3.416-5.294-7.957-5.294-12.795
				c0-9.973,8.116-18.089,18.089-18.089h4.106c8.477,1.75,25.802,3.809,26.12,3.809h0.17c1.326,1.581,2.727,3.119,4.191,4.583
				h-4.965C308.834,419.817,294.31,430.649,288.942,445.979z M429.248,442.817c0,18.969-15.436,34.395-34.406,34.395h-68.811
				c-4.838,0-9.379-1.878-12.805-5.305c-3.416-3.406-5.294-7.946-5.294-12.784c0-0.191,0-0.382,0.011-0.583
				c0.308-9.814,8.254-17.505,18.089-17.505c0,0,55.539-0.021,55.974-0.021c5.856,0,10.609-4.753,10.609-10.609
				c0-5.867-4.753-10.609-10.609-10.609c-28.061,0-50.892-22.831-50.892-50.892c0-5.856-4.753-10.609-10.609-10.609
				c-5.867,0-10.609,4.753-10.609,10.609c0,7.416,1.125,14.566,3.215,21.303h-10.397c-18.524-4.01-37.461-10.588-55.964-19.489
				v-41.768c0-5.867-4.753-10.609-10.609-10.609c-5.867,0-10.609,4.742-10.609,10.609v126.748c0,11.861-9.665,21.526-21.526,21.526
				c-11.872,0-21.526-9.665-21.526-21.526V309.46c0-5.867-4.753-10.609-10.609-10.609c-5.071,0-9.294,3.543-10.355,8.286
				c-3.14-3.554-6.122-7.161-8.944-10.811c-11.458-14.789-20.051-29.992-25.409-44.803c6.673,1.719,13.569,2.62,20.539,2.62
				c44.262,0,80.46-35.233,82.02-79.123c0.032-0.042,0.053-0.085,0.085-0.127c2.886,0.456,5.846,0.69,8.88,0.69
				c13.696,0,26.873-4.976,37.122-13.834c17.516,6.047,34.809,14.153,51.497,24.157c16.922,10.153,32.464,21.802,46.214,34.639
				c34.544,32.273,55.56,70.403,56.876,102.835L429.248,442.817z M490.782,142.948c0,10.779-8.774,19.553-19.553,19.553
				c-10.779,0-19.542-8.774-19.542-19.553l-0.011,0.011V96.82c0-5.856-4.742-10.609-10.609-10.609
				c-5.856,0-10.609,4.753-10.609,10.609v160.199c-9.888-16.763-23.054-33.281-39.095-48.781V96.82
				c0-27.404,22.301-49.704,49.715-49.704c27.404,0,49.704,22.301,49.704,49.704V142.948z"/>
		</g>
	</g>
</g>
<g>
	<g>
		<path d="M107.259,141.792c-4.986,0-9.018,4.031-9.018,9.018c0,4.976,4.031,9.007,9.018,9.007c4.976,0,9.007-4.032,9.007-9.007
			C116.266,145.823,112.235,141.792,107.259,141.792z"/>
	</g>
</g>
<g>
	<g>
		<path d="M142.619,186.817l-3.299-3.299c-3.734-3.734-9.771-3.734-13.505,0c-3.724,3.724-3.724,9.771,0,13.505l3.31,3.299
			c1.857,1.867,4.307,2.801,6.747,2.801s4.891-0.934,6.747-2.801C146.354,196.599,146.354,190.552,142.619,186.817z"/>
	</g>
</g>
<g>
	<g>
		<path d="M169.599,183.518c-3.724-3.734-9.771-3.734-13.506,0l-3.299,3.31c-3.734,3.724-3.734,9.771,0,13.495
			c1.867,1.867,4.307,2.801,6.747,2.801c2.451,0,4.891-0.934,6.758-2.801l3.299-3.299
			C173.333,193.289,173.333,187.242,169.599,183.518z"/>
	</g>
</g>
<g id="SVGCleanerId_1">
	<g>
		<path d="M188.165,141.792c-4.986,0-9.018,4.031-9.018,9.018c0,4.976,4.031,9.007,9.018,9.007c4.976,0,9.007-4.032,9.007-9.007
			C197.172,145.823,193.141,141.792,188.165,141.792z"/>
	</g>
</g>
<g id="SVGCleanerId_2">
	<g>
		<path d="M390.111,287.212c-8.456-15.84-20.614-31.223-36.146-45.726c-12.275-11.469-26.205-21.908-41.397-31.021
			c-5.029-3.013-11.543-1.379-14.556,3.639c-3.013,5.029-1.39,11.543,3.639,14.556c13.919,8.349,26.65,17.876,37.832,28.327
			c13.622,12.731,24.666,26.64,31.912,40.219c1.91,3.575,5.58,5.612,9.368,5.612c1.687,0,3.395-0.403,4.986-1.252
			C390.928,298.808,392.88,292.379,390.111,287.212z"/>
	</g>
</g>
<g>
	<g>
		<path d="M107.259,141.792c-4.986,0-9.018,4.031-9.018,9.018c0,4.976,4.031,9.007,9.018,9.007c4.976,0,9.007-4.032,9.007-9.007
			C116.266,145.823,112.235,141.792,107.259,141.792z"/>
	</g>
</g>
<g>
	<g>
		<path d="M188.165,141.792c-4.986,0-9.018,4.031-9.018,9.018c0,4.976,4.031,9.007,9.018,9.007c4.976,0,9.007-4.032,9.007-9.007
			C197.172,145.823,193.141,141.792,188.165,141.792z"/>
	</g>
</g>
<g>
	<g>
		<path d="M142.619,186.817l-3.299-3.299c-3.734-3.734-9.771-3.734-13.505,0c-3.724,3.724-3.724,9.771,0,13.505l3.31,3.299
			c1.857,1.867,4.307,2.801,6.747,2.801s4.891-0.934,6.747-2.801C146.354,196.599,146.354,190.552,142.619,186.817z"/>
	</g>
</g>
<g>
	<g>
		<path d="M169.599,183.518c-3.724-3.734-9.771-3.734-13.506,0l-3.299,3.31c-3.734,3.724-3.734,9.771,0,13.495
			c1.867,1.867,4.307,2.801,6.747,2.801c2.451,0,4.891-0.934,6.758-2.801l3.299-3.299
			C173.333,193.289,173.333,187.242,169.599,183.518z"/>
	</g>
</g>
<g>
	<g>
		<path d="M390.111,287.212c-8.456-15.84-20.614-31.223-36.146-45.726c-12.275-11.469-26.205-21.908-41.397-31.021
			c-5.029-3.013-11.543-1.379-14.556,3.639c-3.013,5.029-1.39,11.543,3.639,14.556c13.919,8.349,26.65,17.876,37.832,28.327
			c13.622,12.731,24.666,26.64,31.912,40.219c1.91,3.575,5.58,5.612,9.368,5.612c1.687,0,3.395-0.403,4.986-1.252
			C390.928,298.808,392.88,292.379,390.111,287.212z"/>
	</g>
</g>
</svg>