<?xml version="1.0" encoding="iso-8859-1"?>
<!-- Uploaded to: SVG Repo, www.svgrepo.com, Generator: SVG Repo Mixer Tools -->
<svg fill="#000000" height="52px" width="52px" version="1.1" id="Layer_1" xmlns="http://www.w3.org/2000/svg" xmlns:xlink="http://www.w3.org/1999/xlink" 
	 viewBox="0 0 512 512" xml:space="preserve">
<g>
	<g>
		<path d="M180.599,155.784c-5.453,0-9.885,4.421-9.885,9.874c0,5.464,4.432,9.874,9.885,9.874c5.453,0,9.863-4.41,9.863-9.874
			C190.462,160.205,186.052,155.784,180.599,155.784z"/>
	</g>
</g>
<g>
	<g>
		<path d="M331.401,155.784c-5.453,0-9.874,4.421-9.874,9.874c0,5.464,4.421,9.874,9.874,9.874c5.453,0,9.874-4.41,9.874-9.874
			C341.275,160.205,336.855,155.784,331.401,155.784z"/>
	</g>
</g>
<g>
	<g>
		<path d="M256,53.579c-28.687,0-54.814,14.639-69.872,39.163c-2.915,4.733-1.431,10.939,3.302,13.854
			c1.656,1.022,3.474,1.506,5.271,1.506c3.388,0,6.701-1.71,8.605-4.808C214.675,84.783,234.369,73.736,256,73.736
			c5.561,0,10.079-4.518,10.079-10.079C266.079,58.086,261.561,53.579,256,53.579z"/>
	</g>
</g>
<g>
	<g>
		<path d="M180.599,155.784c-5.453,0-9.885,4.421-9.885,9.874c0,5.464,4.432,9.874,9.885,9.874c5.453,0,9.863-4.41,9.863-9.874
			C190.462,160.205,186.052,155.784,180.599,155.784z"/>
	</g>
</g>
<g>
	<g>
		<path d="M256,53.579c-28.687,0-54.814,14.639-69.872,39.163c-2.915,4.733-1.431,10.939,3.302,13.854
			c1.656,1.022,3.474,1.506,5.271,1.506c3.388,0,6.701-1.71,8.605-4.808C214.675,84.783,234.369,73.736,256,73.736
			c5.561,0,10.079-4.518,10.079-10.079C266.079,58.086,261.561,53.579,256,53.579z"/>
	</g>
</g>
<g>
	<g>
		<path d="M331.401,155.784c-5.453,0-9.874,4.421-9.874,9.874c0,5.464,4.421,9.874,9.874,9.874c5.453,0,9.874-4.41,9.874-9.874
			C341.275,160.205,336.855,155.784,331.401,155.784z"/>
	</g>
</g>
<g>
	<g>
		<path d="M180.599,155.784c-5.453,0-9.885,4.421-9.885,9.874c0,5.464,4.432,9.874,9.885,9.874c5.453,0,9.863-4.41,9.863-9.874
			C190.462,160.205,186.052,155.784,180.599,155.784z"/>
	</g>
</g>
<g>
	<g>
		<path d="M256,53.579c-28.687,0-54.814,14.639-69.872,39.163c-2.915,4.733-1.431,10.939,3.302,13.854
			c1.656,1.022,3.474,1.506,5.271,1.506c3.388,0,6.701-1.71,8.605-4.808C214.675,84.783,234.369,73.736,256,73.736
			c5.561,0,10.079-4.518,10.079-10.079C266.079,58.086,261.561,53.579,256,53.579z"/>
	</g>
</g>
<g>
	<g>
		<path d="M331.401,155.784c-5.453,0-9.874,4.421-9.874,9.874c0,5.464,4.421,9.874,9.874,9.874c5.453,0,9.874-4.41,9.874-9.874
			C341.275,160.205,336.855,155.784,331.401,155.784z"/>
	</g>
</g>
<g>
	<g>
		<path d="M331.401,155.784c-5.453,0-9.874,4.421-9.874,9.874c0,5.464,4.421,9.874,9.874,9.874c5.453,0,9.874-4.41,9.874-9.874
			C341.275,160.205,336.855,155.784,331.401,155.784z"/>
	</g>
</g>
<g>
	<g>
		<path d="M256,53.579c-28.687,0-54.814,14.639-69.872,39.163c-2.915,4.733-1.431,10.939,3.302,13.854
			c1.656,1.022,3.474,1.506,5.271,1.506c3.388,0,6.701-1.71,8.605-4.808C214.675,84.783,234.369,73.736,256,73.736
			c5.561,0,10.079-4.518,10.079-10.079C266.079,58.086,261.561,53.579,256,53.579z"/>
	</g>
</g>
<g>
	<g>
		<path d="M180.599,155.784c-5.453,0-9.885,4.421-9.885,9.874c0,5.464,4.432,9.874,9.885,9.874c5.453,0,9.863-4.41,9.863-9.874
			C190.462,160.205,186.052,155.784,180.599,155.784z"/>
	</g>
</g>
<g>
	<g>
		<path d="M180.599,155.784c-5.453,0-9.885,4.421-9.885,9.874c0,5.464,4.432,9.874,9.885,9.874c5.453,0,9.863-4.41,9.863-9.874
			C190.462,160.205,186.052,155.784,180.599,155.784z"/>
	</g>
</g>
<g>
	<g>
		<path d="M256,53.579c-28.687,0-54.814,14.639-69.872,39.163c-2.915,4.733-1.431,10.939,3.302,13.854
			c1.656,1.022,3.474,1.506,5.271,1.506c3.388,0,6.701-1.71,8.605-4.808C214.675,84.783,234.369,73.736,256,73.736
			c5.561,0,10.079-4.518,10.079-10.079C266.079,58.086,261.561,53.579,256,53.579z"/>
	</g>
</g>
<g>
	<g>
		<path d="M331.401,155.784c-5.453,0-9.874,4.421-9.874,9.874c0,5.464,4.421,9.874,9.874,9.874c5.453,0,9.874-4.41,9.874-9.874
			C341.275,160.205,336.855,155.784,331.401,155.784z"/>
	</g>
</g>
<g>
	<g>
		<path d="M507.179,265.38c-5.055-7.217-13.338-11.541-22.169-11.541c-11.273,0-21.2,6.949-25.277,17.705
			c-3.431,9.014-12.187,14.585-21.835,13.865c-11.143-0.85-19.867-10.573-19.867-22.126c0,0-0.032-73.927-0.075-74.562
			c-1.14-24.029-13.639-45.649-33.742-58.923C381.202,61.668,324.84,7.177,256,7.177c-68.861,0-125.224,54.502-128.225,122.621
			c-20.093,13.273-32.591,34.893-33.732,58.869c-0.032,0.688-0.075,74.616-0.075,74.616c0,11.552-8.723,21.276-19.867,22.126
			c-9.627,0.721-18.404-4.851-21.835-13.865c-4.077-10.756-14.005-17.705-25.299-17.705c-8.809,0-17.092,4.324-22.147,11.541
			c-4.991,7.142-6.185,16.253-3.216,24.374c10.982,29.999,39.131,49.543,70.797,49.543c1.205,0,2.431-0.032,3.646-0.086
			c20.448-0.968,38.647-10.111,51.598-24.223v47.026c0,11.574-8.723,21.297-19.856,22.126c-9.638,0.742-18.415-4.83-21.846-13.854
			c-4.077-10.756-14.005-17.705-25.299-17.705c-8.809,0-17.081,4.313-22.147,11.552c-4.98,7.142-6.185,16.242-3.216,24.374
			c10.982,29.999,39.131,49.532,70.797,49.532c1.215,0,2.42-0.032,3.646-0.075c40.239-1.915,71.755-35.399,71.755-76.262V258.893
			c0-3.797,3.098-6.895,6.895-6.895s6.895,3.098,6.895,6.895v219.018c0,14.854,12.079,26.912,26.912,26.912
			c14.844,0,26.923-12.058,26.923-26.912V258.893c0-3.797,3.098-6.895,6.895-6.895c3.797,0,6.895,3.098,6.895,6.895v219.018
			c0,14.854,12.079,26.912,26.912,26.912c14.844,0,26.923-12.058,26.923-26.912V258.893c0-3.797,3.087-6.895,6.884-6.895
			c3.808,0,6.895,3.098,6.895,6.895v102.808c0,40.863,31.526,74.347,71.765,76.262c1.226,0.043,2.431,0.075,3.646,0.075
			c31.656,0,59.815-19.544,70.787-49.532c2.969-8.132,1.775-17.231-3.216-24.374c-5.055-7.239-13.327-11.552-22.158-11.552
			c-11.283,0-21.2,6.949-25.288,17.705c-3.431,9.024-12.208,14.585-21.835,13.854c-11.133-0.828-19.867-10.552-19.867-22.125
			v-47.026c12.951,14.112,31.15,23.255,51.608,24.223c1.215,0.054,2.442,0.086,3.646,0.086c31.666,0,59.815-19.544,70.797-49.543
			C513.364,281.632,512.17,272.522,507.179,265.38z M491.464,282.837c-4.259,11.606-12.025,21.061-21.824,27.418
			c-2.786-2.248-6.68-2.893-10.186-1.355c-3.496,1.527-5.647,4.862-5.873,8.433c-5.335,1.398-10.939,2.011-16.672,1.742
			c-3.399-0.161-6.69-0.645-9.885-1.388c-0.301-3.571-2.528-6.841-6.056-8.304s-7.422-0.721-10.154,1.592
			c-7.615-4.722-13.983-11.251-18.565-19.006c2.356-2.711,3.173-6.583,1.764-10.154c-1.409-3.56-4.668-5.841-8.239-6.185
			c-0.914-4.077-1.42-8.315-1.42-12.671v-9.154c3.571-1.495,6.077-5.012,6.077-9.111c0-4.12-2.506-7.648-6.077-9.132v-22.749
			c3.571-1.495,6.077-5.012,6.077-9.132c0-4.098-2.506-7.615-6.077-9.111v-3.7c0-5.561-4.518-10.079-10.079-10.079
			s-10.079,4.518-10.079,10.079V258.7c0,0.065-0.011,0.129-0.011,0.194v103.12c0,22.061,16.909,40.605,38.507,42.24
			c18.619,1.409,35.571-9.379,42.197-26.805c1.086-2.861,3.614-4.7,6.464-4.7c3.216,0,5.002,2.054,5.615,2.936
			c0.721,1.043,1.796,3.184,0.807,5.884c-4.249,11.617-12.015,21.082-21.824,27.428c-2.786-2.248-6.68-2.904-10.175-1.345
			c-3.507,1.527-5.658,4.851-5.884,8.422c-5.324,1.388-10.928,2.022-16.672,1.742c-3.388-0.161-6.69-0.645-9.885-1.388
			c-0.301-3.56-2.517-6.83-6.045-8.304c-3.539-1.452-7.433-0.721-10.165,1.592c-7.605-4.722-13.983-11.251-18.565-19.017
			c2.366-2.689,3.173-6.572,1.764-10.143c-1.409-3.56-4.668-5.841-8.239-6.185c-0.914-4.066-1.42-8.315-1.42-12.671v-9.143
			c3.582-1.495,6.088-5.012,6.088-9.132c0-4.109-2.506-7.626-6.088-9.121v-22.76c3.582-1.474,6.088-5.002,6.088-9.111
			s-2.506-7.626-6.088-9.121v-34.42c0-14.919-12.133-27.052-27.052-27.052c-14.908,0-27.041,12.133-27.041,27.052v31.871
			c-3.582,1.495-6.077,5.012-6.077,9.121s2.495,7.637,6.077,9.11v22.771c-3.582,1.484-6.077,5.002-6.077,9.111
			c0,4.12,2.495,7.637,6.077,9.121v22.674c-3.582,1.484-6.077,5.002-6.077,9.11c0,4.109,2.495,7.626,6.077,9.121v22.846
			c-3.582,1.484-6.077,5.002-6.077,9.121c0,4.098,2.495,7.626,6.077,9.111v22.76c-3.582,1.484-6.077,5.012-6.077,9.111
			c0,4.109,2.495,7.626,6.077,9.121v4.937c0,3.732-3.033,6.755-6.766,6.755s-6.755-3.023-6.755-6.755V258.893
			c0-14.919-12.133-27.052-27.052-27.052c-14.919,0-27.052,12.133-27.052,27.052v219.018c0,3.732-3.033,6.755-6.766,6.755
			c-3.722,0-6.755-3.023-6.755-6.755v-4.948c3.571-1.484,6.077-5.012,6.077-9.111c0-4.098-2.506-7.615-6.077-9.111v-22.76
			c3.571-1.495,6.077-5.012,6.077-9.111c0-4.12-2.506-7.648-6.077-9.121v-22.76l0.011,0.075c3.571-1.495,6.077-5.012,6.077-9.121
			s-2.506-7.626-6.077-9.121l-0.011-0.075v-22.76c3.571-1.474,6.077-5.002,6.077-9.111s-2.506-7.626-6.077-9.121v-22.76
			c3.571-1.484,6.077-5.002,6.077-9.111c0-4.098-2.506-7.626-6.077-9.111v-31.881c0-14.919-12.133-27.052-27.052-27.052
			c-14.919,0-27.052,12.133-27.052,27.052v34.42c-3.571,1.495-6.077,5.012-6.077,9.121c0,4.109,2.506,7.637,6.077,9.111v22.76
			c-3.571,1.495-6.077,5.012-6.077,9.121c0,4.12,2.506,7.637,6.077,9.132v9.143c0,4.356-0.495,8.605-1.409,12.671
			c-3.571,0.344-6.83,2.625-8.25,6.185c-1.409,3.571-0.592,7.454,1.764,10.143c-4.571,7.766-10.961,14.295-18.565,19.017
			c-2.732-2.313-6.626-3.044-10.154-1.592c-3.528,1.474-5.755,4.743-6.056,8.304c-3.195,0.742-6.486,1.226-9.874,1.388
			c-5.744,0.28-11.359-0.355-16.683-1.742c-0.226-3.571-2.366-6.895-5.884-8.422c-3.496-1.56-7.39-0.904-10.175,1.355
			c-9.799-6.357-17.565-15.822-21.824-27.439c-0.99-2.7,0.086-4.84,0.807-5.884c0.624-0.882,2.409-2.936,5.647-2.936
			c2.818,0,5.346,1.839,6.443,4.701c6.239,16.414,21.631,26.923,38.948,26.923c1.076,0,2.151-0.043,3.238-0.118
			c21.599-1.635,38.507-20.179,38.507-42.24V190.871c0-5.561-4.518-10.079-10.079-10.079c-5.561,0-10.079,4.518-10.079,10.079v3.7
			c-3.571,1.495-6.077,5.012-6.077,9.111c0,4.12,2.506,7.637,6.077,9.132v22.749c-3.571,1.484-6.077,5.012-6.077,9.132
			c0,4.098,2.506,7.615,6.077,9.111v9.154c0,4.356-0.506,8.594-1.42,12.671c-3.571,0.344-6.83,2.625-8.239,6.185
			c-1.409,3.571-0.592,7.443,1.764,10.154c-4.582,7.755-10.95,14.284-18.565,19.006c-2.732-2.313-6.626-3.055-10.154-1.592
			s-5.755,4.733-6.056,8.304c-3.195,0.742-6.486,1.226-9.885,1.388c-5.733,0.269-11.337-0.344-16.672-1.742
			c-0.226-3.571-2.377-6.905-5.873-8.433c-3.507-1.538-7.4-0.893-10.186,1.355c-9.799-6.346-17.565-15.812-21.824-27.418
			c-0.99-2.721,0.086-4.862,0.807-5.905c0.613-0.882,2.399-2.936,5.647-2.936c2.818,0,5.357,1.85,6.432,4.701
			c6.249,16.425,21.641,26.923,38.959,26.923c1.065,0,2.151-0.032,3.248-0.118c21.588-1.635,38.496-20.179,38.496-42.218
			c0,0,0.021-73.164,0.054-73.605c0.893-18.974,11.541-35.915,28.45-45.337c0.204-0.118,0.344-0.215,0.452-0.29
			c2.829-1.786,4.722-4.937,4.722-8.53c0-59.654,48.532-108.186,108.197-108.186c59.654,0,108.186,48.532,108.186,108.186
			c0,3.603,1.893,6.755,4.733,8.54c0.097,0.065,0.226,0.151,0.441,0.269c16.92,9.422,27.568,26.374,28.472,45.402
			c0.021,0.377,0.043,73.551,0.043,73.551c0,22.039,16.909,40.583,38.496,42.218c18.63,1.398,35.571-9.358,42.207-26.805
			c1.076-2.85,3.614-4.701,6.454-4.701c3.227,0,5.012,2.054,5.625,2.936C491.378,277.975,492.454,280.115,491.464,282.837z"/>
	</g>
</g>
<g>
	<g>
		<path d="M180.599,155.784c-5.453,0-9.885,4.421-9.885,9.874c0,5.464,4.432,9.874,9.885,9.874c5.453,0,9.863-4.41,9.863-9.874
			C190.462,160.205,186.052,155.784,180.599,155.784z"/>
	</g>
</g>
<g>
	<g>
		<path d="M256,53.579c-28.687,0-54.814,14.639-69.872,39.163c-2.915,4.733-1.431,10.939,3.302,13.854
			c1.656,1.022,3.474,1.506,5.271,1.506c3.388,0,6.701-1.71,8.605-4.808C214.675,84.783,234.369,73.736,256,73.736
			c5.561,0,10.079-4.518,10.079-10.079C266.079,58.086,261.561,53.579,256,53.579z"/>
	</g>
</g>
<g>
	<g>
		<path d="M331.401,155.784c-5.453,0-9.874,4.421-9.874,9.874c0,5.464,4.421,9.874,9.874,9.874c5.453,0,9.874-4.41,9.874-9.874
			C341.275,160.205,336.855,155.784,331.401,155.784z"/>
	</g>
</g>
<g>
	<g>
		<path d="M331.401,155.784c-5.453,0-9.874,4.421-9.874,9.874c0,5.464,4.421,9.874,9.874,9.874c5.453,0,9.874-4.41,9.874-9.874
			C341.275,160.205,336.855,155.784,331.401,155.784z"/>
	</g>
</g>
<g>
	<g>
		<path d="M256,53.579c-28.687,0-54.814,14.639-69.872,39.163c-2.915,4.733-1.431,10.939,3.302,13.854
			c1.656,1.022,3.474,1.506,5.271,1.506c3.388,0,6.701-1.71,8.605-4.808C214.675,84.783,234.369,73.736,256,73.736
			c5.561,0,10.079-4.518,10.079-10.079C266.079,58.086,261.561,53.579,256,53.579z"/>
	</g>
</g>
<g>
	<g>
		<path d="M180.599,155.784c-5.453,0-9.885,4.421-9.885,9.874c0,5.464,4.432,9.874,9.885,9.874c5.453,0,9.863-4.41,9.863-9.874
			C190.462,160.205,186.052,155.784,180.599,155.784z"/>
	</g>
</g>
<g>
	<g>
		<path d="M331.401,155.784c-5.453,0-9.874,4.421-9.874,9.874c0,5.464,4.421,9.874,9.874,9.874c5.453,0,9.874-4.41,9.874-9.874
			C341.275,160.205,336.855,155.784,331.401,155.784z"/>
	</g>
</g>
<g>
	<g>
		<path d="M256,53.579c-28.687,0-54.814,14.639-69.872,39.163c-2.915,4.733-1.431,10.939,3.302,13.854
			c1.656,1.022,3.474,1.506,5.271,1.506c3.388,0,6.701-1.71,8.605-4.808C214.675,84.783,234.369,73.736,256,73.736
			c5.561,0,10.079-4.518,10.079-10.079C266.079,58.086,261.561,53.579,256,53.579z"/>
	</g>
</g>
<g>
	<g>
		<path d="M180.599,155.784c-5.453,0-9.885,4.421-9.885,9.874c0,5.464,4.432,9.874,9.885,9.874c5.453,0,9.863-4.41,9.863-9.874
			C190.462,160.205,186.052,155.784,180.599,155.784z"/>
	</g>
</g>
<g>
	<g>
		<path d="M180.599,155.784c-5.453,0-9.885,4.421-9.885,9.874c0,5.464,4.432,9.874,9.885,9.874c5.453,0,9.863-4.41,9.863-9.874
			C190.462,160.205,186.052,155.784,180.599,155.784z"/>
	</g>
</g>
<g>
	<g>
		<path d="M180.599,155.784c-5.453,0-9.885,4.421-9.885,9.874c0,5.464,4.432,9.874,9.885,9.874c5.453,0,9.863-4.41,9.863-9.874
			C190.462,160.205,186.052,155.784,180.599,155.784z"/>
	</g>
</g>
<g>
	<g>
		<path d="M180.599,155.784c-5.453,0-9.885,4.421-9.885,9.874c0,5.464,4.432,9.874,9.885,9.874c5.453,0,9.863-4.41,9.863-9.874
			C190.462,160.205,186.052,155.784,180.599,155.784z"/>
	</g>
</g>
</svg>